HIERARCHY
ROOT joint_Root
{
	OFFSET 0.0 0.0 0.0
	CHANNELS 6 Xposition Yposition Zposition Zrotation Xrotation Yrotation 
	JOINT Hips
	{
		OFFSET -0.726466 93.3139 -2.00062
		CHANNELS 6 Xposition Yposition Zposition Zrotation Xrotation Yrotation 
		JOINT Spine
		{
			OFFSET 15.7357 0.0 0.0
			CHANNELS 6 Xposition Yposition Zposition Zrotation Xrotation Yrotation 
			JOINT Chest
			{
				OFFSET 8.98455 -0.406207 0.0
				CHANNELS 6 Xposition Yposition Zposition Zrotation Xrotation Yrotation 
				JOINT Neck
				{
					OFFSET 16.3773 0.0 0.0
					CHANNELS 6 Xposition Yposition Zposition Zrotation Xrotation Yrotation 
					JOINT Head
					{
						OFFSET 6.45672 0.0 0.0
						CHANNELS 6 Xposition Yposition Zposition Zrotation Xrotation Yrotation 
						End Site
						{
							OFFSET 0.0 0.0 0.0
						}
					}
				}
				JOINT Shoulder_L
				{
					OFFSET 12.9942 -0.242716 4.98039
					CHANNELS 6 Xposition Yposition Zposition Zrotation Xrotation Yrotation 
					JOINT UpperArm_L
					{
						OFFSET 5.34809 0.0 0.0
						CHANNELS 6 Xposition Yposition Zposition Zrotation Xrotation Yrotation 
						JOINT LowerArm_L
						{
							OFFSET 24.3286 1.87007e-05 0.0
							CHANNELS 6 Xposition Yposition Zposition Zrotation Xrotation Yrotation 
							JOINT Hand_L
							{
								OFFSET 22.2916 0.0 0.0
								CHANNELS 6 Xposition Yposition Zposition Zrotation Xrotation Yrotation 
								End Site
								{
									OFFSET 0.0 0.0 0.0
								}
							}
						}
					}
				}
				JOINT Shoulder_R
				{
					OFFSET 12.9945 -0.242716 -4.98039
					CHANNELS 6 Xposition Yposition Zposition Zrotation Xrotation Yrotation 
					JOINT UpperArm_R
					{
						OFFSET -5.34813 0.0 0.0
						CHANNELS 6 Xposition Yposition Zposition Zrotation Xrotation Yrotation 
						JOINT LowerArm_R
						{
							OFFSET -24.3289 0.000322201 0.0
							CHANNELS 6 Xposition Yposition Zposition Zrotation Xrotation Yrotation 
							JOINT Hand_R
							{
								OFFSET -22.2915 -0.000108084 0.0
								CHANNELS 6 Xposition Yposition Zposition Zrotation Xrotation Yrotation 
								End Site
								{
									OFFSET 0.0 0.0 0.0
								}
							}
						}
					}
				}
			}
		}
		JOINT UpperLeg_L
		{
			OFFSET -2.19248 -6.46944 0.0
			CHANNELS 6 Xposition Yposition Zposition Zrotation Xrotation Yrotation 
			JOINT LowerLeg_L
			{
				OFFSET 39.0811 0.0 -1.23785e-05
				CHANNELS 6 Xposition Yposition Zposition Zrotation Xrotation Yrotation 
				JOINT Foot_L
				{
					OFFSET 40.9854 0.0 -1.26872e-05
					CHANNELS 6 Xposition Yposition Zposition Zrotation Xrotation Yrotation 
					JOINT Toes_L
					{
						OFFSET 11.7543 0.0 0.0
						CHANNELS 6 Xposition Yposition Zposition Zrotation Xrotation Yrotation 
						End Site
						{
							OFFSET 0.0 0.0 0.0
						}
					}
				}
			}
		}
		JOINT UpperLeg_R
		{
			OFFSET -2.19251 6.46944 0.0
			CHANNELS 6 Xposition Yposition Zposition Zrotation Xrotation Yrotation 
			JOINT LowerLeg_R
			{
				OFFSET -39.0811 -0.00228153 -0.0401928
				CHANNELS 6 Xposition Yposition Zposition Zrotation Xrotation Yrotation 
				JOINT Foot_R
				{
					OFFSET -40.9854 0.0 0.0
					CHANNELS 6 Xposition Yposition Zposition Zrotation Xrotation Yrotation 
					JOINT Toes_R
					{
						OFFSET -11.7543 0.0 0.0
						CHANNELS 6 Xposition Yposition Zposition Zrotation Xrotation Yrotation 
						End Site
						{
							OFFSET 0.0 0.0 0.0
						}
					}
				}
			}
		}
	}
}
MOTION
Frames:	8
Frame Time:	0.0333333
0.000000 0.000000 0.000000 0.000000 0.000000 -0.000000 -0.829634 92.877500 -0.143038 88.991200 -2.758180 2.198470 15.735700 0.000005 -0.000001 95.783000 87.467800 -95.904100 8.984550 -0.406207 -0.000000 -2.726970 0.521190 -0.229777 16.377300 -0.000001 -0.000001 4.924170 -2.267000 3.424840 6.456720 -0.000001 -0.000000 9.305560 -1.784190 -4.225440 12.994200 -0.242716 4.980390 -88.059400 -6.309900 -72.866000 5.348090 -0.000007 -0.000001 -81.424200 -29.055600 -85.316600 24.328600 0.000019 0.000005 14.785900 -0.649692 -92.459900 22.291600 -0.000001 0.000005 16.222900 5.583940 -10.425200 12.994500 -0.242716 -4.980390 89.642700 1.191200 -73.301800 -5.348130 -0.000001 -0.000004 -71.052000 -27.883900 -92.734700 -24.328900 0.000322 -0.000009 16.260600 1.162500 -86.022300 -22.291500 -0.000108 -0.000004 20.240100 5.433930 -4.074640 -2.192480 -6.469440 -0.000000 -176.319000 -8.434070 -1.558890 39.081100 -0.000007 -0.000012 -0.063912 0.205669 17.262700 40.985400 -0.000006 -0.000013 -0.495408 4.161990 -63.589400 11.754300 -0.000000 0.000003 -0.000004 -0.000054 -16.579600 -2.192510 6.469440 -0.000001 179.121000 11.355200 -179.483000 -39.081100 -0.002282 -0.040193 -0.056579 0.232199 14.467500 -40.985400 0.000008 0.000006 1.235500 7.572980 -63.056000 -11.754300 -0.000006 -0.000006 -0.005496 -0.066187 -19.266400
0.000000 0.000000 0.000000 0.000000 0.000000 -0.000000 -0.820920 92.881600 -0.111733 88.987300 -2.764600 2.212190 15.735700 0.000005 -0.000001 95.761200 87.462600 -95.886700 8.984550 -0.406207 -0.000000 -2.716410 0.520711 -0.238742 16.377300 -0.000001 -0.000001 4.940260 -2.274440 3.432100 6.456720 -0.000001 -0.000000 9.269630 -1.766180 -4.177060 12.994200 -0.242716 4.980390 -88.046000 -6.313100 -72.762800 5.348090 -0.000007 -0.000001 -81.272400 -29.076200 -85.396400 24.328600 0.000019 0.000005 14.794700 -0.636590 -92.408900 22.291600 -0.000001 0.000005 16.195000 5.585100 -10.489000 12.994500 -0.242716 -4.980390 89.623700 1.253000 -73.284000 -5.348130 -0.000001 -0.000004 -70.871400 -27.975800 -92.834800 -24.328900 0.000322 -0.000009 16.234900 1.213980 -85.839800 -22.291500 -0.000108 -0.000004 20.231900 5.433220 -4.049940 -2.192480 -6.469440 -0.000000 -176.324000 -8.407030 -1.498220 39.081100 -0.000007 -0.000012 -0.063775 0.205907 17.209100 40.985400 -0.000006 -0.000013 -0.498558 4.106360 -63.583300 11.754300 -0.000000 0.000003 -0.000003 -0.000039 -16.579000 -2.192510 6.469440 -0.000001 179.135000 11.350700 -179.440000 -39.081100 -0.002282 -0.040193 -0.054010 0.222351 14.460800 -40.985400 0.000008 0.000006 1.438500 7.524030 -63.108700 -11.754300 -0.000006 -0.000006 -0.005711 -0.068183 -19.347800
0.000000 0.000000 0.000000 0.000000 0.000000 -0.000000 -0.799747 92.880300 -0.092089 88.982600 -2.800000 2.195080 15.735700 0.000005 -0.000001 96.020600 87.463200 -96.141400 8.984550 -0.406207 -0.000000 -2.719920 0.543013 -0.228741 16.377300 -0.000001 -0.000001 4.919710 -2.278740 3.432700 6.456720 -0.000001 -0.000000 9.304090 -1.787540 -4.159250 12.994200 -0.242716 4.980390 -88.040300 -6.315430 -72.721700 5.348090 -0.000007 -0.000001 -81.066300 -29.175500 -85.359800 24.328600 0.000019 0.000005 14.616800 -0.656673 -92.516400 22.291600 -0.000001 0.000005 16.151900 5.585670 -10.520700 12.994500 -0.242716 -4.980390 89.617700 1.270410 -73.252100 -5.348130 -0.000001 -0.000004 -70.584300 -28.131700 -92.843600 -24.328900 0.000322 -0.000009 16.171100 1.249950 -85.699200 -22.291500 -0.000108 -0.000004 20.249200 5.432090 -4.010980 -2.192480 -6.469440 -0.000000 -176.322000 -8.472960 -1.495350 39.081100 -0.000007 -0.000012 -0.064355 0.207770 17.209800 40.985400 -0.000006 -0.000013 -0.484236 4.145170 -63.602100 11.754300 -0.000000 0.000003 -0.000003 -0.000042 -16.579100 -2.192510 6.469440 -0.000001 179.130000 11.333200 -179.454000 -39.081100 -0.002282 -0.040193 -0.053378 0.219841 14.464300 -40.985400 0.000008 0.000006 1.442600 7.555510 -63.116300 -11.754300 -0.000006 -0.000006 -0.005687 -0.067969 -19.339100
0.000000 0.000000 0.000000 0.000000 0.000000 -0.000000 -0.779159 92.879600 -0.096737 88.954700 -2.823730 2.168840 15.735700 0.000005 -0.000001 95.898600 87.469400 -96.002600 8.984550 -0.406207 -0.000000 -2.731300 0.529455 -0.195385 16.377300 -0.000001 -0.000001 4.886160 -2.261890 3.423490 6.456720 -0.000001 -0.000000 9.339400 -1.775010 -4.122430 12.994200 -0.242716 4.980390 -88.033200 -6.311150 -72.651500 5.348090 -0.000007 -0.000001 -80.869500 -29.309500 -85.074500 24.328600 0.000019 0.000005 14.377000 -0.757806 -92.953800 22.291600 -0.000001 0.000005 15.804200 5.583290 -10.390000 12.994500 -0.242716 -4.980390 89.619900 1.257550 -73.179700 -5.348130 -0.000001 -0.000004 -70.096900 -28.268200 -92.507800 -24.328900 0.000322 -0.000009 15.935600 1.202710 -85.796900 -22.291500 -0.000108 -0.000004 20.281900 5.428760 -3.896530 -2.192480 -6.469440 -0.000000 -176.315000 -8.444190 -1.547080 39.081100 -0.000007 -0.000012 -0.064848 0.208769 17.255700 40.985400 -0.000006 -0.000013 -0.476297 4.102750 -63.623600 11.754300 -0.000000 0.000003 -0.000003 -0.000051 -16.579500 -2.192510 6.469440 -0.000001 179.160000 11.305300 -179.483000 -39.081100 -0.002282 -0.040193 -0.052274 0.215538 14.465900 -40.985400 0.000008 0.000006 1.499460 7.552820 -63.123400 -11.754300 -0.000006 -0.000006 -0.005439 -0.065656 -19.244800
0.000000 0.000000 0.000000 0.000000 0.000000 -0.000000 -0.755823 92.884000 -0.106671 88.982200 -2.845790 2.118650 15.735700 0.000005 -0.000001 95.739300 87.465000 -95.851900 8.984550 -0.406207 -0.000000 -2.720980 0.517128 -0.212897 16.377300 -0.000001 -0.000001 4.666640 -2.226220 3.440670 6.456720 -0.000001 -0.000000 9.521640 -1.646600 -4.028050 12.994200 -0.242716 4.980390 -88.055300 -6.234870 -72.638300 5.348090 -0.000007 -0.000001 -80.437800 -29.580400 -84.304500 24.328600 0.000019 0.000005 14.059500 -1.007890 -94.017900 22.291600 -0.000001 0.000005 15.320100 5.576800 -10.040900 12.994500 -0.242716 -4.980390 89.603500 1.307550 -73.129100 -5.348130 -0.000001 -0.000004 -69.373900 -28.504700 -91.673500 -24.328900 0.000322 -0.000009 15.408700 1.035740 -86.249100 -22.291500 -0.000108 -0.000004 20.023800 5.427000 -3.836460 -2.192480 -6.469440 -0.000000 -176.367000 -8.533750 -1.579780 39.081100 -0.000007 -0.000012 -0.063687 0.205685 17.204300 40.985400 -0.000006 -0.000013 -0.442577 4.168890 -63.592200 11.754300 -0.000000 0.000003 -0.000002 -0.000026 -16.578500 -2.192510 6.469440 -0.000001 179.124000 11.304100 -179.554000 -39.081100 -0.002282 -0.040193 -0.052817 0.217600 14.468600 -40.985400 0.000008 0.000006 1.463020 7.560350 -63.101400 -11.754300 -0.000006 -0.000006 -0.005558 -0.066764 -19.290000
0.000000 0.000000 0.000000 0.000000 0.000000 -0.000000 -0.713681 92.897300 -0.153172 88.983200 -2.963100 2.031590 15.735700 0.000005 -0.000001 95.561900 87.446500 -95.660700 8.984550 -0.406207 -0.000000 -2.682690 0.503807 -0.185827 16.377300 -0.000001 -0.000001 4.341140 -2.093840 3.433630 6.456720 -0.000001 -0.000000 9.427360 -1.376710 -3.943600 12.994200 -0.242716 4.980390 -88.107000 -6.030340 -72.536300 5.348090 -0.000007 -0.000001 -79.501400 -30.015300 -82.501100 24.328600 0.000019 0.000005 13.417300 -1.485800 -96.204800 22.291600 -0.000001 0.000005 14.846400 5.563420 -9.354200 12.994500 -0.242716 -4.980390 89.574600 1.399080 -73.086100 -5.348130 -0.000001 -0.000004 -68.259500 -28.762100 -90.117300 -24.328900 0.000322 -0.000009 14.448600 0.684817 -87.346100 -22.291500 -0.000108 -0.000004 19.506500 5.421980 -3.666160 -2.192480 -6.469440 -0.000000 -176.405000 -8.621720 -1.638640 39.081100 -0.000007 -0.000012 -0.063157 0.205146 17.111700 40.985400 -0.000006 -0.000013 -0.431357 4.117250 -63.525400 11.754300 -0.000000 0.000003 -0.000002 -0.000025 -16.578500 -2.192510 6.469440 -0.000001 179.137000 11.162400 -179.659000 -39.081100 -0.002282 -0.040193 -0.051104 0.211926 14.405600 -40.985400 0.000008 0.000006 1.490810 7.549640 -63.029600 -11.754300 -0.000006 -0.000006 -0.005671 -0.067817 -19.332900
0.000000 0.000000 0.000000 0.000000 0.000000 -0.000000 -0.669190 92.909500 -0.208599 88.952800 -3.146210 1.899590 15.735700 0.000005 -0.000001 95.815300 87.412600 -95.883300 8.984550 -0.406207 -0.000000 -2.617540 0.530303 -0.123774 16.377300 -0.000001 -0.000001 3.885160 -1.997330 3.477100 6.456720 -0.000001 -0.000000 9.140430 -1.142570 -3.925700 12.994200 -0.242716 4.980390 -88.213600 -5.664710 -72.464400 5.348090 -0.000007 -0.000001 -77.575700 -30.568600 -79.127500 24.328600 0.000019 0.000005 11.811300 -2.072650 -99.815100 22.291600 -0.000001 0.000005 14.500000 5.553870 -8.889940 12.994500 -0.242716 -4.980390 89.526600 1.556570 -73.081800 -5.348130 -0.000001 -0.000004 -66.659700 -29.126300 -87.468300 -24.328900 0.000322 -0.000009 14.040400 0.108093 -89.569100 -22.291500 -0.000108 -0.000004 18.480100 5.414120 -3.400310 -2.192480 -6.469440 -0.000000 -176.435000 -8.709550 -1.778620 39.081100 -0.000007 -0.000012 -0.062688 0.204040 17.078700 40.985400 -0.000006 -0.000013 -0.411041 4.028320 -63.481000 11.754300 -0.000000 0.000003 -0.000001 -0.000020 -16.578300 -2.192510 6.469440 -0.000001 179.185000 11.069300 -179.827000 -39.081100 -0.002282 -0.040193 -0.049246 0.205522 14.350000 -40.985400 0.000008 0.000006 1.550970 7.604710 -62.949800 -11.754300 -0.000006 -0.000006 -0.005649 -0.067616 -19.324700
0.000000 0.000000 0.000000 0.000000 0.000000 -0.000000 -0.601056 92.935400 -0.282207 88.943300 -3.342360 1.717360 15.735700 0.000005 -0.000001 96.844000 87.390500 -96.879800 8.984550 -0.406207 -0.000000 -2.584180 0.624931 -0.057506 16.377300 -0.000001 -0.000001 3.307400 -1.980250 3.567360 6.456720 -0.000001 -0.000000 8.810220 -1.045560 -3.955210 12.994200 -0.242716 4.980390 -88.392000 -5.112610 -72.514400 5.348090 -0.000007 -0.000001 -74.198300 -30.837600 -73.644600 24.328600 0.000019 0.000005 10.071200 -2.675440 -104.731000 22.291600 -0.000001 0.000005 14.616600 5.555240 -8.955240 12.994500 -0.242716 -4.980390 89.460900 1.767810 -73.037800 -5.348130 -0.000001 -0.000004 -64.366600 -29.413100 -83.232600 -24.328900 0.000322 -0.000009 13.518200 -0.779550 -93.241500 -22.291500 -0.000108 -0.000004 16.984300 5.400840 -2.962780 -2.192480 -6.469440 -0.000000 -176.512000 -8.807990 -1.909480 39.081100 -0.000007 -0.000012 -0.060833 0.200145 16.906300 40.985400 -0.000006 -0.000013 -0.383527 3.913410 -63.359700 11.754300 -0.000000 0.000003 -0.000003 -0.000037 -16.579000 -2.192510 6.469440 -0.000001 179.197000 10.965000 179.992000 -39.081100 -0.002282 -0.040193 -0.047960 0.203085 14.174400 -40.985400 0.000008 0.000006 1.550240 7.722850 -62.781100 -11.754300 -0.000006 -0.000006 -0.005528 -0.066484 -19.278600
